<svg aria-hidden="true" class="svg-icon iconMarketingOverflowai native ps-relative z-active" width="306" height="64" viewBox="0 0 345 72" data-v-a73a80b9=""><path fill="currentColor" d="M84.22 32.4c-3.97 0-6.65 1.53-8.32 3.29-2.43 2.5-3.06 5.54-3.06 10.37 0 4.88.63 7.92 3.06 10.43 1.63 1.75 4.35 3.29 8.32 3.29s6.7-1.54 8.38-3.3c2.42-2.5 3.05-5.54 3.05-10.42 0-4.83-.63-7.87-3.05-10.37-1.68-1.76-4.4-3.3-8.38-3.3m3.14 20.17c-.8.79-1.8 1.16-3.14 1.16a4.2 4.2 0 0 1-3.1-1.16c-1.37-1.38-1.54-3.75-1.54-6.55s.17-5.08 1.55-6.46a4 4 0 0 1 3.1-1.17c1.33 0 2.38.42 3.13 1.17 1.39 1.38 1.55 3.71 1.55 6.46 0 2.8-.16 5.17-1.55 6.55m26.12-19.89-5.44 16.55-5.48-16.55h-7.03l9.92 26.8h5.27l9.88-26.8zm18.5-.29c-6.99 0-11.72 4.92-11.72 13.67 0 10.84 6.12 13.72 12.44 13.72 4.85 0 7.49-1.5 10.2-4.21l-4.05-3.96c-1.72 1.7-3.14 2.5-6.11 2.5-3.77 0-5.9-2.5-5.9-5.96h16.82v-3c.05-7.34-4.18-12.76-11.67-12.76m-5.1 11.17c.04-1.16.2-1.91.63-2.87a4.7 4.7 0 0 1 4.48-2.8 4.6 4.6 0 0 1 4.47 2.8c.42.96.59 1.7.63 2.87zm26.75-8.3v-2.58h-6.58v26.8h6.7v-16.1c0-3.38 2.26-4.92 4.35-4.92 1.64 0 2.52.54 3.56 1.58l5.07-5.09c-1.84-1.83-3.73-2.5-6.37-2.5a9 9 0 0 0-6.74 2.84m15.19-5.37v29.56h6.7V38.3h4.98v-5.08h-4.94V30.3c0-1.54.8-2.42 2.38-2.42h2.6v-5.67h-3.8c-5.53 0-7.92 3.88-7.92 7.67m39.3 2.5c-3.97 0-6.65 1.54-8.33 3.3-2.42 2.5-3.05 5.54-3.05 10.37 0 4.88.63 7.92 3.05 10.43 1.64 1.75 4.36 3.29 8.33 3.29 3.98 0 6.7-1.54 8.38-3.3 2.42-2.5 3.05-5.54 3.05-10.42 0-4.83-.63-7.87-3.06-10.37-1.63-1.76-4.39-3.3-8.37-3.3m3.19 20.18c-.8.79-1.8 1.16-3.14 1.16a4.2 4.2 0 0 1-3.1-1.16c-1.38-1.38-1.55-3.75-1.55-6.55s.17-5.08 1.55-6.46c.8-.79 1.76-1.17 3.1-1.17s2.38.42 3.14 1.17c1.38 1.38 1.54 3.71 1.54 6.46 0 2.8-.16 5.17-1.54 6.55m39.97-19.89-4.35 16.55-5.53-16.55h-4.9l-5.48 16.55-4.35-16.55h-7.12l8.25 26.8h5.52l5.61-16.8 5.61 16.8h5.53l8.28-26.8zM190.42 51.4V22.22h-6.7v29.6c0 3.8 2.34 7.67 7.87 7.67h3.8v-5.67h-2.59c-1.71 0-2.38-.84-2.38-2.42"></path><path fill="#F48024" d="M283.26 12.25a10 10 0 0 0-9.57 7.09l-11.4 37.5a10 10 0 0 0 9.56 12.91h51.3a10 10 0 0 0 9.57-7.09l11.4-37.5a10 10 0 0 0-9.56-12.91zm31.34 41.03V28.72h-4.1v-5.88h15.29v5.88h-4.1v24.56h4.1v5.88H310.5v-5.88zm-30.69-24.51h-2.69v-5.88h12.47l9.5 30.4h3.83v5.87h-13.45v-5.88h2.86l-1.1-4h-11.25l-1.1 4h3.63v5.88h-13.45v-5.88h3.05zm1.8 14.64h8l-4-14.47z"></path><path fill="#BCBBBB" d="M51.56 46.33v18.95H6.75V46.33H0V72h58.3V46.33z"></path><path fill="#F48024" d="M12.92 59.17h32.49v-6.11H12.92zm.65-14.62 31.56 6.6 1.3-6.27-31.56-6.6zm4.16-15.06 29.22 13.58 2.72-5.82-29.22-13.58zm8.11-14.3 24.8 20.57 4.16-4.92-24.87-20.56zM41.82 0l-5.2 3.82 19.22 25.8 5.2-3.82z"></path></svg>