<svg aria-hidden="true" class="svg-icon iconMarketingOverflowapi flex--item native h64 w-auto md:mb24" width="398" height="72" viewBox="0 0 398 72" data-v-810f63ea=""><path fill="currentColor" d="M84.22 32.4c-3.97 0-6.65 1.53-8.32 3.29-2.43 2.5-3.06 5.54-3.06 10.37 0 4.88.63 7.92 3.06 10.43 1.63 1.75 4.35 3.29 8.32 3.29s6.7-1.54 8.38-3.3c2.42-2.5 3.05-5.54 3.05-10.42 0-4.83-.63-7.87-3.05-10.37-1.68-1.76-4.4-3.3-8.38-3.3m3.14 20.17c-.8.79-1.8 1.16-3.14 1.16a4.2 4.2 0 0 1-3.1-1.16c-1.37-1.38-1.54-3.75-1.54-6.55s.17-5.08 1.55-6.46a4 4 0 0 1 3.1-1.17c1.33 0 2.38.42 3.13 1.17 1.39 1.38 1.55 3.71 1.55 6.46 0 2.8-.16 5.17-1.55 6.55m26.12-19.89-5.44 16.55-5.48-16.55h-7.03l9.92 26.8h5.27l9.88-26.8zm18.5-.29c-6.99 0-11.72 4.92-11.72 13.67 0 10.84 6.12 13.72 12.44 13.72 4.85 0 7.49-1.5 10.2-4.21l-4.05-3.96c-1.72 1.7-3.14 2.5-6.11 2.5-3.77 0-5.9-2.5-5.9-5.96h16.82v-3c.05-7.34-4.18-12.76-11.67-12.76m-5.1 11.17c.04-1.16.2-1.91.63-2.87a4.7 4.7 0 0 1 4.48-2.8 4.6 4.6 0 0 1 4.47 2.8c.42.96.59 1.7.63 2.87zm26.75-8.3v-2.58h-6.58v26.8h6.7v-16.1c0-3.38 2.26-4.92 4.35-4.92 1.64 0 2.52.54 3.56 1.58l5.07-5.09c-1.84-1.83-3.73-2.5-6.37-2.5a9 9 0 0 0-6.74 2.84m15.19-5.37v29.56h6.7V38.3h4.98v-5.08h-4.94V30.3c0-1.54.8-2.42 2.38-2.42h2.6v-5.67h-3.8c-5.53 0-7.92 3.88-7.92 7.67m39.3 2.5c-3.97 0-6.65 1.54-8.33 3.3-2.42 2.5-3.05 5.54-3.05 10.37 0 4.88.63 7.92 3.05 10.43 1.64 1.75 4.36 3.29 8.33 3.29 3.98 0 6.7-1.54 8.38-3.3 2.42-2.5 3.05-5.54 3.05-10.42 0-4.83-.63-7.87-3.06-10.37-1.63-1.76-4.39-3.3-8.37-3.3m3.19 20.18c-.8.79-1.8 1.16-3.14 1.16a4.2 4.2 0 0 1-3.1-1.16c-1.38-1.38-1.55-3.75-1.55-6.55s.17-5.08 1.55-6.46c.8-.79 1.76-1.17 3.1-1.17s2.38.42 3.14 1.17c1.38 1.38 1.54 3.71 1.54 6.46 0 2.8-.16 5.17-1.54 6.55m39.97-19.89-4.35 16.55-5.53-16.55h-4.9l-5.48 16.55-4.35-16.55h-7.12l8.25 26.8h5.52l5.61-16.8 5.61 16.8h5.53l8.28-26.8zM190.42 51.4V22.22h-6.7v29.6c0 3.8 2.34 7.67 7.87 7.67h3.8v-5.67h-2.59c-1.71 0-2.38-.84-2.38-2.42"></path><path fill="#F48024" d="M356.28 59.47h-7.38l-2.14-6.42h-12.88l-2.2 6.42h-7.37l13.18-36.25h5.55zm-11.4-12.38-4.43-13.18-4.59 13.18zm40.86-12.57c0 6.16-4.48 11.3-11.96 11.3h-6.98v13.65h-7.07V23.22h14.05c7.48 0 11.96 5.14 11.96 11.3m-7.07 0c0-2.95-2.04-4.99-5.25-4.99h-6.62v9.93h6.62c3.21 0 5.25-1.99 5.25-4.94m19.09 24.95h-7.08V23.22h7.07z"></path><path fill="#BCBBBB" d="M51.56 46.33v18.95H6.75V46.33H0V72h58.3V46.33z"></path><path fill="#F48024" d="M12.92 59.17h32.49v-6.11H12.92zm.65-14.62 31.56 6.6 1.3-6.27-31.56-6.6zm4.16-15.06 29.22 13.58 2.72-5.82-29.22-13.58zm8.11-14.3 24.8 20.57 4.16-4.92-24.87-20.56zM41.82 0l-5.2 3.82 19.22 25.8 5.2-3.82zm258.27 16.52 1.77 7.84 6.8-4.29a25 25 0 0 1 7.23 7.25l-4.28 6.79 7.83 1.77a25 25 0 0 1 0 10.24l-7.83 1.77 4.28 6.8a25 25 0 0 1-7.24 7.24l-6.79-4.3-1.77 7.85a25 25 0 0 1-10.24 0l-1.77-7.84-6.8 4.29a25 25 0 0 1-7.24-7.25l4.3-6.79-7.85-1.77a25 25 0 0 1 0-10.24l7.84-1.77-4.29-6.8a25 25 0 0 1 7.25-7.24l6.79 4.3 1.77-7.85a25 25 0 0 1 10.24 0M306.96 41a11.99 11.99 0 1 0-23.98 0 11.99 11.99 0 0 0 23.98 0"></path></svg>