<svg aria-hidden="true" class="svg-icon iconMarketingLogo mr16 native fc-black" width="157" height="37" viewBox="0 0 157 37" data-v-0aca008c=""><path fill="#BCBBBB" d="M22 20v8H3v-8H0v11h25V20z"></path><path fill="#F48024" d="M5.54 25.48h13.93v-2.64H5.54zm.28-6.3 13.53 2.84.56-2.7-13.53-2.84zM7.6 12.7l12.53 5.84 1.17-2.5-12.53-5.85zm3.48-6.16 10.64 8.86 1.78-2.12-10.67-8.85zM17.93 0 15.7 1.64l8.24 11.11 2.23-1.64z"></path><path fill="currentColor" d="M35.77 19.27 34 19.11c-1.4-.1-1.94-.68-1.94-1.62 0-1.13.86-1.83 2.47-1.83a4.7 4.7 0 0 1 2.95.88l1.06-1.06a6.3 6.3 0 0 0-3.99-1.18c-2.37 0-4.07 1.22-4.07 3.25 0 1.83 1.15 2.8 3.3 2.98l1.83.16c1.28.1 1.85.64 1.85 1.61 0 1.31-1.13 1.96-2.94 1.96A4.6 4.6 0 0 1 31.07 23l-1.08 1.07c1.22 1.17 2.68 1.6 4.54 1.6 2.68 0 4.5-1.24 4.5-3.37 0-2.09-1.32-2.84-3.26-3.02m13.86-4.97c-1.78 0-2.9.36-3.88 1.6-.02.01 1.06 1.06 1.06 1.06.65-.92 1.38-1.26 2.8-1.26 2.03 0 2.84.8 2.84 2.42v1.06H49.1c-2.48 0-3.83 1.26-3.83 3.2 0 .88.3 1.7.83 2.24.7.72 1.6 1 3.12 1 1.5 0 2.3-.28 3.2-1.18v1.06h1.61v-7.52c.02-2.39-1.43-3.68-4.41-3.68m2.82 7.29q0 1.37-.56 1.92c-.7.68-1.53.73-2.48.73-1.76 0-2.55-.6-2.55-1.88q-.01-1.94 2.48-1.96h3.1zm7.96-5.85c1.06 0 1.71.32 2.55 1.23l1.08-1.06a4.4 4.4 0 0 0-3.63-1.61c-2.8 0-4.9 1.88-4.9 5.67s2.12 5.67 4.9 5.67A4.4 4.4 0 0 0 64.07 24l-1.1-1.06c-.82.92-1.49 1.26-2.55 1.26a3 3 0 0 1-2.56-1.26c-.52-.71-.72-1.58-.72-2.98s.2-2.24.72-2.98c.6-.8 1.49-1.23 2.56-1.23m13.88-1.31h-2.03l-5.03 4.88V9.49h-1.61v16.03h1.61v-4.04l1.98-1.98 3.71 6.02h2.01l-4.59-7.15zm7.63-.58a4.8 4.8 0 0 0-3.58 1.42c-1.04 1.08-1.3 2.39-1.3 4.47 0 2.1.26 3.4 1.3 4.49.7.75 1.87 1.41 3.58 1.41a4.8 4.8 0 0 0 3.59-1.41c1.04-1.08 1.3-2.4 1.3-4.5 0-2.07-.26-3.38-1.3-4.46a4.8 4.8 0 0 0-3.6-1.42m1.34 8.69q-.5.5-1.34.5-.85-.01-1.33-.5c-.6-.6-.67-1.62-.67-2.82s.08-2.19.67-2.78c.34-.34.75-.5 1.33-.5q.86 0 1.34.5c.6.59.67 1.6.67 2.78 0 1.2-.08 2.23-.67 2.82m11.2-8.56-2.33 7.12-2.35-7.12h-3.02l4.26 11.54h2.26l4.23-11.54zm7.93-.13c-3 0-5.02 2.12-5.02 5.89 0 4.66 2.62 5.9 5.33 5.9a5.5 5.5 0 0 0 4.38-1.81l-1.74-1.7a3.2 3.2 0 0 1-2.62 1.07c-1.62 0-2.53-1.07-2.53-2.56h7.21v-1.3c.02-3.16-1.8-5.49-5-5.49m-2.19 4.81c.02-.5.1-.82.27-1.24a2 2 0 0 1 1.92-1.2c.97 0 1.62.5 1.92 1.2.18.41.26.74.27 1.24zm11.47-3.57v-1.11h-2.81v11.54h2.87v-6.95c0-1.45.97-2.12 1.86-2.12.7 0 1.08.24 1.53.69l2.17-2.2a3.5 3.5 0 0 0-2.73-1.07 3.8 3.8 0 0 0-2.89 1.22m6.52-2.32V25.5h2.87v-9.1h2.14v-2.2h-2.12v-1.25c0-.66.34-1.04 1.02-1.04h1.11V9.47h-1.63c-2.37 0-3.4 1.67-3.4 3.3m16.85 1.08c-1.7 0-2.85.67-3.57 1.42-1.04 1.08-1.31 2.39-1.31 4.47 0 2.1.27 3.4 1.31 4.49.7.75 1.87 1.41 3.57 1.41a4.8 4.8 0 0 0 3.6-1.41c1.03-1.08 1.3-2.4 1.3-4.5 0-2.07-.27-3.38-1.3-4.46a4.8 4.8 0 0 0-3.6-1.42m1.37 8.69q-.51.5-1.35.5-.84-.01-1.33-.5c-.6-.6-.66-1.62-.66-2.82s.07-2.19.66-2.78q.5-.5 1.33-.5.86 0 1.34.5c.6.59.67 1.6.67 2.78 0 1.2-.07 2.23-.66 2.82m17.13-8.56-1.86 7.12-2.37-7.12h-2.1l-2.35 7.12-1.87-7.12h-3.05l3.54 11.54h2.37l2.4-7.24 2.4 7.24h2.38l3.55-11.54zm-26.1 8.06V9.47h-2.86v12.75c0 1.63 1 3.3 3.37 3.3h1.64v-2.44h-1.12c-.73 0-1.02-.36-1.02-1.04m-83.91-5.85 1.49-1.5h-3.07v-3.66h-1.62v11.5c0 1.66.95 2.99 2.84 2.99h1.15v-1.4h-.87c-1.04 0-1.5-.61-1.5-1.62v-6.32z"></path></svg>